<svg width="204" height="32" viewBox="0 0 204 32" fill="none" xmlns="http://www.w3.org/2000/svg">
<path d="M25.7778 0H3.55556C1.6 0 0 1.6 0 3.55556V13.7067C0 20.5156 5.24444 26.4711 12.0533 26.6667C19.0933 26.88 24.8889 21.2267 24.8889 14.2222V12.4444H25.7778C29.2089 12.4444 32 9.65333 32 6.22222C32 2.79111 29.2089 0 25.7778 0ZM21.3333 3.55556V8.88889H3.55556V3.55556H21.3333ZM21.3333 12.4444V14.2222C21.3333 19.1289 17.3511 23.1111 12.4444 23.1111C7.53778 23.1111 3.55556 19.1289 3.55556 14.2222V12.4444M25.7778 8.88889H24.8889V3.55556H25.7778C27.2533 3.55556 28.4444 4.74667 28.4444 6.22222C28.4444 7.69778 27.2533 8.88889 25.7778 8.88889ZM0 28.4444H28.4444V32H0V28.4444Z" fill="#55423D"/>
<path d="M47.3509 22.0804C45.3771 22.0804 43.6331 21.6377 42.119 20.7523C40.6049 19.8392 39.4288 18.5664 38.5906 16.9339C37.7524 15.2737 37.3333 13.323 37.3333 11.0817C37.3333 9.14483 37.7524 7.33247 38.5906 5.64462C39.4288 3.95677 40.6049 2.60095 42.119 1.57717C43.6602 0.525724 45.4447 0 47.4725 0C48.6081 0 49.7167 0.166018 50.7982 0.498055C51.8797 0.802421 52.8531 1.34198 53.7183 2.11673C54.6105 2.89148 55.3135 3.94293 55.8272 5.27108C56.368 6.59922 56.6248 8.2594 56.5978 10.2516L43.2952 10.5006C43.2952 11.9948 43.4709 13.3368 43.8224 14.5266C44.2009 15.7164 44.8093 16.6572 45.6475 17.3489C46.4856 18.0406 47.6077 18.3865 49.0137 18.3865C49.5544 18.3865 50.1628 18.2897 50.8387 18.096C51.5417 17.9023 52.2447 17.5841 52.9477 17.1414C53.6777 16.671 54.3536 16.0484 54.9755 15.2737L56.8006 17.0169C55.8272 18.428 54.7863 19.5071 53.6777 20.2542C52.5692 20.9736 51.4606 21.4578 50.3521 21.7069C49.2705 21.9559 48.2701 22.0804 47.3509 22.0804ZM43.5385 7.59533H51.001C50.9739 6.4332 50.8117 5.5201 50.5143 4.85603C50.2439 4.16429 49.8654 3.66623 49.3787 3.36187C48.892 3.0575 48.3242 2.90532 47.6753 2.90532C46.4856 2.90532 45.5528 3.34803 44.8769 4.23346C44.2009 5.09122 43.7548 6.21185 43.5385 7.59533Z" fill="#55423D"/>
<path d="M68.89 22.0804C67.7273 22.0804 66.5918 21.9282 65.4832 21.6239C64.3746 21.3195 63.5094 20.9321 62.8876 20.4617L62.9687 21.7069H59.8864L59.7241 14.5681H62.3603C62.4414 15.3982 62.7659 16.1591 63.3337 16.8508C63.9015 17.5426 64.645 18.096 65.5643 18.511C66.4836 18.8984 67.511 19.0921 68.6466 19.0921C69.1063 19.0921 69.5389 19.0229 69.9444 18.8846C70.3771 18.7462 70.7285 18.5249 70.9989 18.2205C71.2963 17.8885 71.445 17.4872 71.445 17.0169C71.445 16.4911 71.2558 16.0623 70.8773 15.7302C70.5258 15.3982 69.9985 15.08 69.2955 14.7756C68.6196 14.4713 67.7679 14.1254 66.7405 13.738C65.9023 13.406 65.0506 13.0601 64.1854 12.7004C63.3472 12.3407 62.5631 11.9118 61.8331 11.4137C61.1301 10.888 60.5623 10.2516 60.1297 9.50454C59.6971 8.72979 59.4808 7.78902 59.4808 6.68223C59.4808 5.87981 59.6295 5.09122 59.9269 4.31647C60.2243 3.51405 60.684 2.79464 61.3059 2.15824C61.9277 1.49416 62.7118 0.968439 63.6581 0.581063C64.6315 0.193688 65.7806 0 67.1055 0C67.8355 0 68.6601 0.124514 69.5794 0.373541C70.5258 0.594899 71.3234 0.94077 71.9723 1.41115V0.207522H75.0546V7.55383H72.4184C72.2562 6.58539 71.9182 5.7553 71.4045 5.06355C70.9178 4.37181 70.2824 3.84609 69.4983 3.48638C68.7142 3.09901 67.8355 2.90532 66.8621 2.90532C66.1862 2.90532 65.5643 3.07134 64.9965 3.40337C64.4558 3.73541 64.1854 4.30264 64.1854 5.10506C64.1854 5.74146 64.4017 6.25335 64.8343 6.64073C65.2669 7.00043 65.8617 7.3048 66.6188 7.55383C67.3758 7.80285 68.214 8.09339 69.1333 8.42542C70.5122 8.89581 71.7289 9.4492 72.7834 10.0856C73.8649 10.722 74.7166 11.4968 75.3385 12.4099C75.9604 13.2953 76.2713 14.3882 76.2713 15.6887C76.2713 17.1275 75.9198 18.3173 75.2168 19.2581C74.5138 20.1989 73.5946 20.9045 72.459 21.3748C71.3504 21.8452 70.1607 22.0804 68.89 22.0804Z" fill="#55423D"/>
<path d="M78.8406 32V29.3022C79.5977 29.3022 80.1384 29.15 80.4629 28.8457C80.8144 28.5413 81.0307 28.0986 81.1118 27.5175C81.22 26.9641 81.274 26.3277 81.274 25.6083V8.05188C81.274 7.55383 81.2876 7.00043 81.3146 6.3917C81.3416 5.7553 81.3822 5.13273 81.4363 4.524C81.0037 4.55167 80.4899 4.57933 79.8951 4.607C79.3003 4.607 78.8541 4.62084 78.5567 4.64851V1.49416C79.8275 1.49416 80.882 1.42499 81.7202 1.28664C82.5854 1.14829 83.2613 0.982275 83.748 0.788587C84.2617 0.594899 84.6132 0.415046 84.8025 0.249026H86.7898C86.8438 0.525725 86.8844 0.871596 86.9114 1.28664C86.9385 1.67402 86.9655 1.99222 86.9925 2.24125C87.9389 1.41116 88.8717 0.830092 89.791 0.498055C90.7373 0.166018 91.6295 0 92.4677 0C94.09 0 95.5095 0.42888 96.7262 1.28664C97.9699 2.1444 98.9297 3.36187 99.6057 4.93904C100.309 6.51621 100.66 8.37008 100.66 10.5006C100.66 12.7142 100.241 14.7064 99.4029 16.4773C98.5647 18.2205 97.3886 19.5901 95.8745 20.5863C94.3874 21.5824 92.6299 22.0804 90.6021 22.0804C89.8721 22.0804 89.2096 21.9974 88.6148 21.8314C88.047 21.693 87.5063 21.527 86.9925 21.3333V25.3178C86.9925 25.7051 86.979 26.2447 86.952 26.9364C86.952 27.6559 86.9249 28.3338 86.8709 28.9702C87.3035 28.9148 87.7766 28.8733 88.2903 28.8457C88.8041 28.8457 89.1961 28.8457 89.4665 28.8457V32H78.8406ZM89.9532 18.9676C91.1969 18.9399 92.1568 18.5664 92.8327 17.847C93.5357 17.0999 94.0224 16.1314 94.2927 14.9416C94.5631 13.7518 94.6983 12.479 94.6983 11.1232C94.6983 9.85041 94.5496 8.64678 94.2522 7.51232C93.9548 6.37786 93.4816 5.46476 92.8327 4.77302C92.1838 4.05361 91.3321 3.70774 90.2776 3.73541C89.6017 3.76308 88.9798 3.94293 88.412 4.27497C87.8442 4.57933 87.3711 5.00821 86.9925 5.56161C86.9925 6.41937 86.9925 7.27713 86.9925 8.13489C86.9925 8.96498 86.9925 9.79507 86.9925 10.6252C86.9925 11.4553 86.9925 12.2992 86.9925 13.1569C86.9925 13.987 86.9925 14.831 86.9925 15.6887C86.9925 16.5188 86.9925 17.3627 86.9925 18.2205C87.29 18.4142 87.709 18.594 88.2498 18.7601C88.7906 18.9261 89.3583 18.9952 89.9532 18.9676Z" fill="#55423D"/>
<path d="M103.604 18.7185C104.361 18.7185 104.902 18.5664 105.226 18.262C105.551 17.9576 105.754 17.5288 105.835 16.9754C105.943 16.3943 105.997 15.7441 105.997 15.0246V8.05188C105.997 7.55383 106.01 7.00043 106.037 6.3917C106.064 5.7553 106.105 5.13273 106.159 4.524C105.726 4.55167 105.213 4.57933 104.618 4.607C104.05 4.607 103.618 4.62084 103.32 4.64851V1.49416H104.942C105.997 1.49416 106.957 1.35582 107.822 1.07912C108.714 0.802422 109.295 0.525725 109.566 0.249026H111.553C111.607 0.525725 111.648 1.05145 111.675 1.8262C111.702 2.57328 111.715 3.23735 111.715 3.81842C112.445 2.90532 113.135 2.17207 113.784 1.61868C114.433 1.06528 115.068 0.664073 115.69 0.415045C116.339 0.138348 116.988 0 117.637 0C118.583 0 119.408 0.276697 120.111 0.830091C120.814 1.35582 121.165 2.22741 121.165 3.44488C121.165 3.85992 121.07 4.30264 120.881 4.77302C120.692 5.21574 120.395 5.58928 119.989 5.89365C119.583 6.19801 119.029 6.35019 118.326 6.35019C117.785 6.35019 117.231 6.18418 116.663 5.85214C116.095 5.5201 115.771 4.8837 115.69 3.94293C115.149 3.94293 114.608 4.17812 114.068 4.64851C113.527 5.09122 113.04 5.63078 112.608 6.26719C112.202 6.87592 111.918 7.44315 111.756 7.96887V14.7341C111.756 15.1215 111.742 15.6749 111.715 16.3943C111.688 17.086 111.648 17.7501 111.594 18.3865C112.026 18.3312 112.499 18.3035 113.013 18.3035C113.554 18.2758 113.959 18.262 114.23 18.262V21.4163H103.604V18.7185Z" fill="#55423D"/>
<path d="M132.385 22.0804C130.412 22.0804 128.668 21.6377 127.154 20.7523C125.639 19.8392 124.463 18.5664 123.625 16.9339C122.787 15.2737 122.368 13.323 122.368 11.0817C122.368 9.14483 122.787 7.33247 123.625 5.64462C124.463 3.95677 125.639 2.60095 127.154 1.57717C128.695 0.525724 130.479 0 132.507 0C133.643 0 134.751 0.166018 135.833 0.498055C136.914 0.802421 137.888 1.34198 138.753 2.11673C139.645 2.89148 140.348 3.94293 140.862 5.27108C141.402 6.59922 141.659 8.2594 141.632 10.2516L128.33 10.5006C128.33 11.9948 128.505 13.3368 128.857 14.5266C129.235 15.7164 129.844 16.6572 130.682 17.3489C131.52 18.0406 132.642 18.3865 134.048 18.3865C134.589 18.3865 135.197 18.2897 135.873 18.096C136.576 17.9023 137.279 17.5841 137.982 17.1414C138.712 16.671 139.388 16.0484 140.01 15.2737L141.835 17.0169C140.862 18.428 139.821 19.5071 138.712 20.2542C137.604 20.9736 136.495 21.4578 135.387 21.7069C134.305 21.9559 133.305 22.0804 132.385 22.0804ZM128.573 7.59533H136.035C136.008 6.4332 135.846 5.5201 135.549 4.85603C135.278 4.16429 134.9 3.66623 134.413 3.36187C133.927 3.0575 133.359 2.90532 132.71 2.90532C131.52 2.90532 130.587 3.34803 129.911 4.23346C129.235 5.09122 128.789 6.21185 128.573 7.59533Z" fill="#55423D"/>
<path d="M153.924 22.0804C152.762 22.0804 151.626 21.9282 150.518 21.6239C149.409 21.3195 148.544 20.9321 147.922 20.4617L148.003 21.7069H144.921L144.759 14.5681H147.395C147.476 15.3982 147.8 16.1591 148.368 16.8508C148.936 17.5426 149.68 18.096 150.599 18.511C151.518 18.8984 152.546 19.0921 153.681 19.0921C154.141 19.0921 154.573 19.0229 154.979 18.8846C155.412 18.7462 155.763 18.5249 156.033 18.2205C156.331 17.8885 156.48 17.4872 156.48 17.0169C156.48 16.4911 156.29 16.0623 155.912 15.7302C155.56 15.3982 155.033 15.08 154.33 14.7756C153.654 14.4713 152.802 14.1254 151.775 13.738C150.937 13.406 150.085 13.0601 149.22 12.7004C148.382 12.3407 147.598 11.9118 146.868 11.4137C146.165 10.888 145.597 10.2516 145.164 9.50454C144.732 8.72979 144.515 7.78902 144.515 6.68223C144.515 5.87981 144.664 5.09122 144.961 4.31647C145.259 3.51405 145.718 2.79464 146.34 2.15824C146.962 1.49416 147.746 0.968439 148.693 0.581063C149.666 0.193688 150.815 0 152.14 0C152.87 0 153.695 0.124514 154.614 0.373541C155.56 0.594899 156.358 0.94077 157.007 1.41115V0.207522H160.089V7.55383H157.453C157.291 6.58539 156.953 5.7553 156.439 5.06355C155.952 4.37181 155.317 3.84609 154.533 3.48638C153.749 3.09901 152.87 2.90532 151.897 2.90532C151.221 2.90532 150.599 3.07134 150.031 3.40337C149.49 3.73541 149.22 4.30264 149.22 5.10506C149.22 5.74146 149.436 6.25335 149.869 6.64073C150.301 7.00043 150.896 7.3048 151.653 7.55383C152.41 7.80285 153.249 8.09339 154.168 8.42542C155.547 8.89581 156.763 9.4492 157.818 10.0856C158.899 10.722 159.751 11.4968 160.373 12.4099C160.995 13.2953 161.306 14.3882 161.306 15.6887C161.306 17.1275 160.954 18.3173 160.251 19.2581C159.548 20.1989 158.629 20.9045 157.493 21.3748C156.385 21.8452 155.195 22.0804 153.924 22.0804Z" fill="#55423D"/>
<path d="M173.609 22.0804C172.446 22.0804 171.311 21.9282 170.202 21.6239C169.093 21.3195 168.228 20.9321 167.606 20.4617L167.687 21.7069H164.605L164.443 14.5681H167.079C167.16 15.3982 167.485 16.1591 168.052 16.8508C168.62 17.5426 169.364 18.096 170.283 18.511C171.202 18.8984 172.23 19.0921 173.365 19.0921C173.825 19.0921 174.258 19.0229 174.663 18.8846C175.096 18.7462 175.447 18.5249 175.718 18.2205C176.015 17.8885 176.164 17.4872 176.164 17.0169C176.164 16.4911 175.975 16.0623 175.596 15.7302C175.245 15.3982 174.717 15.08 174.014 14.7756C173.338 14.4713 172.487 14.1254 171.459 13.738C170.621 13.406 169.769 13.0601 168.904 12.7004C168.066 12.3407 167.282 11.9118 166.552 11.4137C165.849 10.888 165.281 10.2516 164.848 9.50454C164.416 8.72979 164.2 7.78902 164.2 6.68223C164.2 5.87981 164.348 5.09122 164.646 4.31647C164.943 3.51405 165.403 2.79464 166.025 2.15824C166.647 1.49416 167.431 0.968439 168.377 0.581063C169.35 0.193688 170.499 0 171.824 0C172.554 0 173.379 0.124514 174.298 0.373541C175.245 0.594899 176.042 0.94077 176.691 1.41115V0.207522H179.773V7.55383H177.137C176.975 6.58539 176.637 5.7553 176.123 5.06355C175.637 4.37181 175.001 3.84609 174.217 3.48638C173.433 3.09901 172.554 2.90532 171.581 2.90532C170.905 2.90532 170.283 3.07134 169.715 3.40337C169.175 3.73541 168.904 4.30264 168.904 5.10506C168.904 5.74146 169.12 6.25335 169.553 6.64073C169.986 7.00043 170.581 7.3048 171.338 7.55383C172.095 7.80285 172.933 8.09339 173.852 8.42542C175.231 8.89581 176.448 9.4492 177.502 10.0856C178.584 10.722 179.435 11.4968 180.057 12.4099C180.679 13.2953 180.99 14.3882 180.99 15.6887C180.99 17.1275 180.639 18.3173 179.936 19.2581C179.233 20.1989 178.313 20.9045 177.178 21.3748C176.069 21.8452 174.88 22.0804 173.609 22.0804Z" fill="#55423D"/>
<path d="M193.901 22.0804C191.955 22.0804 190.197 21.6515 188.629 20.7938C187.061 19.936 185.817 18.7185 184.898 17.1414C184.006 15.5365 183.559 13.655 183.559 11.4968C183.559 9.20017 184.019 7.19412 184.938 5.4786C185.885 3.73541 187.128 2.39343 188.67 1.45266C190.238 0.48422 191.941 0 193.78 0C195.726 0 197.47 0.42888 199.012 1.28664C200.553 2.1444 201.769 3.3757 202.662 4.98054C203.554 6.55772 204 8.45309 204 10.6667C204 12.9909 203.567 15.0108 202.702 16.7263C201.837 18.4419 200.647 19.77 199.133 20.7108C197.619 21.6239 195.875 22.0804 193.901 22.0804ZM194.064 19.1336C195.145 19.1059 195.956 18.7185 196.497 17.9715C197.065 17.2244 197.457 16.2836 197.673 15.1492C197.889 14.0147 197.998 12.8664 197.998 11.7043C197.998 10.6805 197.917 9.64289 197.754 8.59144C197.619 7.53999 197.389 6.58539 197.065 5.72763C196.74 4.86987 196.294 4.17812 195.726 3.6524C195.186 3.12668 194.51 2.87765 193.699 2.90532C192.644 2.93299 191.806 3.32036 191.184 4.06745C190.589 4.81453 190.157 5.7553 189.886 6.88975C189.643 7.99654 189.521 9.15867 189.521 10.3761C189.521 11.7873 189.67 13.1708 189.967 14.5266C190.265 15.8824 190.738 17.003 191.387 17.8885C192.063 18.7462 192.955 19.1613 194.064 19.1336Z" fill="#55423D"/>
</svg>
